<svg width="18" height="21" viewBox="0 0 18 21" fill="none" xmlns="http://www.w3.org/2000/svg">
<path d="M5.95 4.60161V2.53665C5.95 1.96878 6.11744 1.48248 6.45233 1.07775C6.78664 0.673702 7.18873 0.47168 7.65859 0.47168H11.0758C11.5456 0.47168 11.948 0.673702 12.2829 1.07775C12.6172 1.48248 12.7844 1.96878 12.7844 2.53665V4.60161H16.2016C16.6714 4.60161 17.0738 4.80398 17.4087 5.20871C17.743 5.61276 17.9102 6.09872 17.9102 6.66658V18.0239C17.9102 18.5918 17.743 19.0781 17.4087 19.4828C17.0738 19.8868 16.6714 20.0889 16.2016 20.0889H2.53281C2.06295 20.0889 1.66086 19.8868 1.32655 19.4828C0.991661 19.0781 0.824219 18.5918 0.824219 18.0239V6.66658C0.824219 6.09872 0.991661 5.61276 1.32655 5.20871C1.66086 4.80398 2.06295 4.60161 2.53281 4.60161H5.95ZM7.65859 4.60161H11.0758V2.53665H7.65859V4.60161ZM16.2016 13.894H11.9301V14.9264C11.9301 15.219 11.8484 15.464 11.6849 15.6616C11.5209 15.8598 11.3178 15.9589 11.0758 15.9589H7.65859C7.41654 15.9589 7.21379 15.8598 7.05033 15.6616C6.88631 15.464 6.8043 15.219 6.8043 14.9264V13.894H2.53281V18.0239H16.2016V13.894ZM8.51289 13.894H10.2215V11.829H8.51289V13.894ZM2.53281 11.829H6.8043V10.7965C6.8043 10.504 6.88631 10.2586 7.05033 10.0604C7.21379 9.86281 7.41654 9.76403 7.65859 9.76403H11.0758C11.3178 9.76403 11.5209 9.86281 11.6849 10.0604C11.8484 10.2586 11.9301 10.504 11.9301 10.7965V11.829H16.2016V6.66658H2.53281V11.829Z" fill="white"/>
</svg>
