<svg width="20" height="15" viewBox="0 0 20 15" fill="none" xmlns="http://www.w3.org/2000/svg">
<path d="M10.3653 0.261719C9.64024 0.261719 8.94488 0.628232 8.43219 1.28063C7.9195 1.93303 7.63147 2.81787 7.63147 3.7405C7.63147 4.66313 7.9195 5.54797 8.43219 6.20037C8.94488 6.85277 9.64024 7.21928 10.3653 7.21928C11.0904 7.21928 11.7857 6.85277 12.2984 6.20037C12.8111 5.54797 13.0991 4.66313 13.0991 3.7405C13.0991 2.81787 12.8111 1.93303 12.2984 1.28063C11.7857 0.628232 11.0904 0.261719 10.3653 0.261719ZM10.3653 2.24959C10.676 2.24959 10.974 2.40667 11.1938 2.68627C11.4135 2.96587 11.5369 3.34509 11.5369 3.7405C11.5369 4.13591 11.4135 4.51513 11.1938 4.79473C10.974 5.07433 10.676 5.23141 10.3653 5.23141C10.0546 5.23141 9.75655 5.07433 9.53682 4.79473C9.3171 4.51513 9.19366 4.13591 9.19366 3.7405C9.19366 3.34509 9.3171 2.96587 9.53682 2.68627C9.75655 2.40667 10.0546 2.24959 10.3653 2.24959ZM5.2882 3.24353C4.7703 3.24353 4.27361 3.50533 3.90741 3.97133C3.5412 4.43732 3.33546 5.06935 3.33546 5.72837C3.33546 6.66268 3.74944 7.46777 4.34307 7.89516C4.62427 8.09395 4.94452 8.21322 5.2882 8.21322C5.63188 8.21322 5.95212 8.09395 6.23332 7.89516C6.52232 7.68643 6.76446 7.38825 6.94411 7.03043C6.37507 6.08676 6.06747 4.92997 6.06929 3.7405V3.4622C5.83496 3.32305 5.56939 3.24353 5.2882 3.24353ZM15.4424 3.24353C15.1612 3.24353 14.8956 3.32305 14.6613 3.4622V3.7405C14.6613 4.93323 14.3567 6.08619 13.7865 7.03043C13.8802 7.21928 13.9818 7.36837 14.0989 7.51746C14.4591 7.96185 14.9407 8.21125 15.4424 8.21322C15.7861 8.21322 16.1063 8.09395 16.3875 7.89516C16.9812 7.46777 17.3951 6.66268 17.3951 5.72837C17.3951 5.06935 17.1894 4.43732 16.8232 3.97133C16.457 3.50533 15.9603 3.24353 15.4424 3.24353ZM10.3653 9.20716C8.53754 9.20716 4.89765 10.3701 4.89765 12.6859V14.1768H15.8329V12.6859C15.8329 10.3701 12.1931 9.20716 10.3653 9.20716ZM4.67113 9.75382C3.16362 9.98243 0.992188 10.9565 0.992188 12.6859V14.1768H3.33546V12.2585C3.33546 11.2547 3.87442 10.4198 4.67113 9.75382ZM16.0595 9.75382C16.8562 10.4198 17.3951 11.2547 17.3951 12.2585V14.1768H19.7384V12.6859C19.7384 10.9565 17.567 9.98243 16.0595 9.75382ZM10.3653 11.195C11.5604 11.195 12.896 11.692 13.6693 12.189H7.06128C7.83456 11.692 9.17023 11.195 10.3653 11.195Z" fill="white"/>
</svg>
