<svg width="17" height="19" viewBox="0 0 17 19" fill="none" xmlns="http://www.w3.org/2000/svg">
<path d="M12.3039 8.5602C13.4523 8.5602 14.5536 9.11016 15.3656 10.0891C16.1776 11.068 16.6338 12.3957 16.6338 13.7801C16.6338 15.1645 16.1776 16.4922 15.3656 17.4711C14.5536 18.45 13.4523 19 12.3039 19C11.1556 19 10.0542 18.45 9.24224 17.4711C8.43023 16.4922 7.97405 15.1645 7.97405 13.7801C7.97405 12.3957 8.43023 11.068 9.24224 10.0891C10.0542 9.11016 11.1556 8.5602 12.3039 8.5602ZM12.3039 10.4583L12.2331 10.465C12.1544 10.4823 12.082 10.5281 12.0255 10.5963C11.9689 10.6644 11.931 10.7517 11.9166 10.8465L11.9103 10.9329V13.3056H9.9406L9.86975 13.3132C9.7911 13.3305 9.71869 13.3763 9.66215 13.4444C9.60562 13.5126 9.56764 13.5999 9.55327 13.6947L9.54697 13.7801L9.55327 13.8655C9.56764 13.9603 9.60562 14.0476 9.66215 14.1158C9.71869 14.1839 9.7911 14.2297 9.86975 14.247L9.9406 14.2546H11.9103V16.6302L11.9166 16.7156C11.931 16.8104 11.9689 16.8977 12.0255 16.9658C12.082 17.034 12.1544 17.0798 12.2331 17.0971L12.3039 17.1047L12.3748 17.0971C12.4534 17.0798 12.5258 17.034 12.5824 16.9658C12.6389 16.8977 12.6769 16.8104 12.6912 16.7156L12.6975 16.6302V14.2546L14.6688 14.2556L14.7397 14.248C14.8183 14.2307 14.8907 14.1849 14.9473 14.1167C15.0038 14.0486 15.0418 13.9613 15.0561 13.8665L15.0624 13.7811L15.0561 13.6956C15.0417 13.6007 15.0036 13.5133 14.9469 13.4451C14.8903 13.377 14.8177 13.3313 14.7389 13.3141L14.668 13.3065H12.6975V10.9338L12.6912 10.8484C12.677 10.7534 12.6391 10.6659 12.5826 10.5976C12.526 10.5293 12.4535 10.4833 12.3748 10.4659L12.3039 10.4583ZM9.74851 6.66206C10.4059 6.66206 10.979 7.09294 11.2844 7.73451C10.871 7.83498 10.4695 7.99726 10.0894 8.21759C9.99016 8.13134 9.87084 8.08516 9.74851 8.08567H6.20432C6.04772 8.08567 5.89754 8.16066 5.78681 8.29415C5.67609 8.42764 5.61388 8.60869 5.61388 8.79747V12.8301C5.61388 14.1683 6.38066 15.292 7.41353 15.5966C7.54851 16.1282 7.74319 16.6349 7.99216 17.1028L7.97641 17.1019C7.03664 17.1019 6.13536 16.6518 5.47085 15.8507C4.80633 15.0496 4.43301 13.963 4.43301 12.8301V8.79747C4.43301 8.23113 4.61963 7.68798 4.95181 7.28751C5.284 6.88704 5.73453 6.66206 6.20432 6.66206H9.74851ZM4.35743 6.66206C4.04137 7.05878 3.81927 7.55037 3.71425 8.08567H1.87287C1.71628 8.08567 1.5661 8.16066 1.45537 8.29415C1.34464 8.42764 1.28244 8.60869 1.28244 8.79747V11.4065C1.28239 11.7651 1.34975 12.1191 1.47946 12.4419C1.60918 12.7646 1.79787 13.0477 2.03137 13.2699C2.26487 13.4922 2.5371 13.6477 2.82762 13.7249C3.11814 13.8021 3.41939 13.7989 3.70874 13.7156C3.77565 14.1939 3.89768 14.6504 4.06536 15.0746C3.59874 15.2251 3.10967 15.2442 2.63595 15.1305C2.16223 15.0167 1.71656 14.7731 1.33341 14.4185C0.950252 14.0639 0.639874 13.6079 0.426274 13.0856C0.212673 12.5633 0.101572 11.9888 0.101563 11.4065V8.79747C0.101507 8.25638 0.271841 7.73544 0.578139 7.33993C0.884437 6.94442 1.30386 6.70384 1.75164 6.66681L1.87287 6.66206H4.35743ZM14.0752 6.66206C14.545 6.66206 14.9956 6.88704 15.3277 7.28751C15.6599 7.68798 15.8465 8.23113 15.8465 8.79747V9.32895C14.8948 8.22488 13.6248 7.60906 12.3039 7.61113L12.111 7.61588C11.9904 7.2617 11.8155 6.93811 11.5954 6.66206H14.0752ZM13.0912 0.967627C13.6131 0.967627 14.1137 1.2176 14.4828 1.66257C14.8519 2.10753 15.0593 2.71103 15.0593 3.34031C15.0593 3.96958 14.8519 4.57308 14.4828 5.01805C14.1137 5.46301 13.6131 5.71299 13.0912 5.71299C12.5692 5.71299 12.0686 5.46301 11.6995 5.01805C11.3304 4.57308 11.123 3.96958 11.123 3.34031C11.123 2.71103 11.3304 2.10753 11.6995 1.66257C12.0686 1.2176 12.5692 0.967627 13.0912 0.967627ZM7.97405 0.0185547C8.60043 0.0185547 9.20114 0.318529 9.64406 0.852485C10.087 1.38644 10.3358 2.11064 10.3358 2.86577C10.3358 3.6209 10.087 4.3451 9.64406 4.87906C9.20114 5.41301 8.60043 5.71299 7.97405 5.71299C7.34768 5.71299 6.74696 5.41301 6.30404 4.87906C5.86113 4.3451 5.6123 3.6209 5.6123 2.86577C5.6123 2.11064 5.86113 1.38644 6.30404 0.852485C6.74696 0.318529 7.34768 0.0185547 7.97405 0.0185547ZM2.85693 0.967627C3.37891 0.967627 3.87951 1.2176 4.24861 1.66257C4.6177 2.10753 4.82506 2.71103 4.82506 3.34031C4.82506 3.96958 4.6177 4.57308 4.24861 5.01805C3.87951 5.46301 3.37891 5.71299 2.85693 5.71299C2.33495 5.71299 1.83436 5.46301 1.46526 5.01805C1.09617 4.57308 0.888811 3.96958 0.888811 3.34031C0.888811 2.71103 1.09617 2.10753 1.46526 1.66257C1.83436 1.2176 2.33495 0.967627 2.85693 0.967627ZM13.0912 2.39124C12.8824 2.39124 12.6821 2.49123 12.5345 2.66921C12.3869 2.8472 12.3039 3.0886 12.3039 3.34031C12.3039 3.59202 12.3869 3.83342 12.5345 4.0114C12.6821 4.18939 12.8824 4.28938 13.0912 4.28938C13.3 4.28938 13.5002 4.18939 13.6478 4.0114C13.7955 3.83342 13.8784 3.59202 13.8784 3.34031C13.8784 3.0886 13.7955 2.8472 13.6478 2.66921C13.5002 2.49123 13.3 2.39124 13.0912 2.39124ZM7.97405 1.44216C7.66086 1.44216 7.3605 1.59215 7.13905 1.85913C6.91759 2.12611 6.79318 2.48821 6.79318 2.86577C6.79318 3.24334 6.91759 3.60544 7.13905 3.87241C7.3605 4.13939 7.66086 4.28938 7.97405 4.28938C8.28724 4.28938 8.5876 4.13939 8.80905 3.87241C9.03051 3.60544 9.15492 3.24334 9.15492 2.86577C9.15492 2.48821 9.03051 2.12611 8.80905 1.85913C8.5876 1.59215 8.28724 1.44216 7.97405 1.44216ZM2.85693 2.39124C2.64814 2.39124 2.4479 2.49123 2.30026 2.66921C2.15263 2.8472 2.06968 3.0886 2.06968 3.34031C2.06968 3.59202 2.15263 3.83342 2.30026 4.0114C2.4479 4.18939 2.64814 4.28938 2.85693 4.28938C3.06572 4.28938 3.26596 4.18939 3.4136 4.0114C3.56124 3.83342 3.64418 3.59202 3.64418 3.34031C3.64418 3.0886 3.56124 2.8472 3.4136 2.66921C3.26596 2.49123 3.06572 2.39124 2.85693 2.39124Z" fill="white"/>
</svg>
