<svg width="96" height="87" viewBox="0 0 96 87" fill="none" xmlns="http://www.w3.org/2000/svg">
<g filter="url(#filter0_d_916_7355)">
<path d="M51.7438 9.45605H55.6307V33.0801C55.6307 37.1577 54.9654 39.9734 53.6362 41.5297C52.3056 43.0835 50.4281 43.859 48.0021 43.859C45.5748 43.859 43.6973 43.0835 42.368 41.5297C41.0415 39.9734 40.3789 37.1577 40.3789 33.0801V9.45605H44.2658V33.8057C44.2658 36.4032 44.5937 38.2067 45.2496 39.2162C45.9055 40.2257 46.814 40.7305 47.9752 40.7305C49.1391 40.7305 50.0584 40.2257 50.7331 39.2162C51.4065 38.2067 51.7438 36.4032 51.7438 33.8057V9.45605Z" fill="url(#paint0_linear_916_7355)"/>
</g>
<g filter="url(#filter1_d_916_7355)">
<path d="M54.4982 39.6504C56.5519 39.6504 58.3018 38.9432 59.7506 37.5262C61.2022 36.1065 61.9279 34.3924 61.9279 32.3838V16.7939H58.2131V32.3838C58.2131 33.3934 57.8489 34.2531 57.1217 34.9603C56.3933 35.6648 55.5197 36.0171 54.4982 36.0171H41.5098C40.4776 36.0171 39.5986 35.6648 38.8755 34.9603C38.1551 34.2531 37.7949 33.3934 37.7949 32.3838V16.7939H34.0801V32.3838C34.0801 34.3924 34.8032 36.1065 36.252 37.5262C37.7035 38.9432 39.4561 39.6504 41.5098 39.6504H54.4982Z" fill="url(#paint1_linear_916_7355)"/>
</g>
<g filter="url(#filter2_d_916_7355)">
<path d="M9.0319 63.0686C9.0319 63.739 9.20931 64.3608 9.56413 64.9352C9.92164 65.507 10.4109 65.9645 11.0318 66.3076C11.6514 66.652 12.3274 66.8228 13.0585 66.8228C13.8246 66.8228 14.5222 66.6572 15.1498 66.3233C15.7761 65.9868 16.2694 65.5333 16.6282 64.9615C16.9857 64.3871 17.1658 63.7561 17.1658 63.0686V51.9375H19.9721V63.1423C19.9721 64.3871 19.6657 65.4913 19.0528 66.4548C18.4426 67.4157 17.6094 68.1676 16.553 68.7105C15.4952 69.2507 14.33 69.5202 13.0585 69.5202C11.7898 69.5202 10.6299 69.2507 9.58026 68.7105C8.52924 68.1676 7.70134 67.4157 7.09653 66.4548C6.49442 65.4913 6.19336 64.3871 6.19336 63.1423V51.9375H9.0319V63.0686Z" fill="#F5F7FA"/>
</g>
<g filter="url(#filter3_d_916_7355)">
<path d="M40.2713 51.9373V69.9511H40.2014L27.3742 57.7894L27.4494 69.3307H24.5625V51.3379H24.713L37.4865 63.6468L37.4381 51.9373H40.2713Z" fill="#F5F7FA"/>
</g>
<g filter="url(#filter4_d_916_7355)">
<path d="M48.0378 51.9375V69.3309H45.1777V51.9375H48.0378Z" fill="#F5F7FA"/>
</g>
<g filter="url(#filter5_d_916_7355)">
<path d="M51.8242 60.6603C51.8242 59.0658 52.2301 57.5883 53.0446 56.2278C53.8577 54.8647 54.9598 53.7776 56.3508 52.9679C57.7446 52.1555 59.2646 51.748 60.9097 51.748C62.54 51.748 64.0507 52.1555 65.4417 52.9679C66.8354 53.7776 67.9469 54.8687 68.7748 56.2384C69.6054 57.6094 70.0221 59.0829 70.0221 60.6603C70.0221 62.2666 69.6095 63.7468 68.7856 65.1033C67.9644 66.4572 66.8529 67.5312 65.4525 68.3265C64.0547 69.123 62.54 69.52 60.9097 69.52C59.2646 69.52 57.7446 69.1257 56.3508 68.337C54.9598 67.5483 53.8577 66.4783 53.0446 65.1243C52.2301 63.7717 51.8242 62.2837 51.8242 60.6603ZM54.7542 60.6603C54.7542 61.7895 55.0297 62.824 55.5821 63.7625C56.1371 64.7024 56.8911 65.4503 57.8454 66.0077C58.7983 66.565 59.8453 66.8437 60.985 66.8437C62.1059 66.8437 63.1314 66.5703 64.0601 66.0235C64.9874 65.474 65.7239 64.7247 66.2696 63.7783C66.818 62.8292 67.0921 61.7895 67.0921 60.6603C67.0921 59.5285 66.8139 58.4861 66.2589 57.5318C65.7065 56.5749 64.9579 55.8177 64.0117 55.2604C63.0682 54.703 62.0346 54.4244 60.9097 54.4244C59.77 54.4244 58.7324 54.703 57.797 55.2604C56.8616 55.8177 56.1197 56.5749 55.5713 57.5318C55.0256 58.4861 54.7542 59.5285 54.7542 60.6603Z" fill="#F5F7FA"/>
</g>
<g filter="url(#filter6_d_916_7355)">
<path d="M89.5134 51.9373V69.9511H89.4436L76.6164 57.7894L76.6916 69.3307H73.8047V51.3379H73.9552L86.7287 63.6468L86.6803 51.9373H89.5134Z" fill="#F5F7FA"/>
</g>
<defs>
<filter id="filter0_d_916_7355" x="36.3789" y="9.45605" width="23.252" height="42.4033" filterUnits="userSpaceOnUse" color-interpolation-filters="sRGB">
<feFlood flood-opacity="0" result="BackgroundImageFix"/>
<feColorMatrix in="SourceAlpha" type="matrix" values="0 0 0 0 0 0 0 0 0 0 0 0 0 0 0 0 0 0 127 0" result="hardAlpha"/>
<feOffset dy="4"/>
<feGaussianBlur stdDeviation="2"/>
<feComposite in2="hardAlpha" operator="out"/>
<feColorMatrix type="matrix" values="0 0 0 0 0 0 0 0 0 0 0 0 0 0 0 0 0 0 0.25 0"/>
<feBlend mode="normal" in2="BackgroundImageFix" result="effect1_dropShadow_916_7355"/>
<feBlend mode="normal" in="SourceGraphic" in2="effect1_dropShadow_916_7355" result="shape"/>
</filter>
<filter id="filter1_d_916_7355" x="30.0801" y="16.7939" width="35.8477" height="30.8564" filterUnits="userSpaceOnUse" color-interpolation-filters="sRGB">
<feFlood flood-opacity="0" result="BackgroundImageFix"/>
<feColorMatrix in="SourceAlpha" type="matrix" values="0 0 0 0 0 0 0 0 0 0 0 0 0 0 0 0 0 0 127 0" result="hardAlpha"/>
<feOffset dy="4"/>
<feGaussianBlur stdDeviation="2"/>
<feComposite in2="hardAlpha" operator="out"/>
<feColorMatrix type="matrix" values="0 0 0 0 0 0 0 0 0 0 0 0 0 0 0 0 0 0 0.25 0"/>
<feBlend mode="normal" in2="BackgroundImageFix" result="effect1_dropShadow_916_7355"/>
<feBlend mode="normal" in="SourceGraphic" in2="effect1_dropShadow_916_7355" result="shape"/>
</filter>
<filter id="filter2_d_916_7355" x="2.19336" y="51.9375" width="21.7793" height="25.583" filterUnits="userSpaceOnUse" color-interpolation-filters="sRGB">
<feFlood flood-opacity="0" result="BackgroundImageFix"/>
<feColorMatrix in="SourceAlpha" type="matrix" values="0 0 0 0 0 0 0 0 0 0 0 0 0 0 0 0 0 0 127 0" result="hardAlpha"/>
<feOffset dy="4"/>
<feGaussianBlur stdDeviation="2"/>
<feComposite in2="hardAlpha" operator="out"/>
<feColorMatrix type="matrix" values="0 0 0 0 0 0 0 0 0 0 0 0 0 0 0 0 0 0 0.25 0"/>
<feBlend mode="normal" in2="BackgroundImageFix" result="effect1_dropShadow_916_7355"/>
<feBlend mode="normal" in="SourceGraphic" in2="effect1_dropShadow_916_7355" result="shape"/>
</filter>
<filter id="filter3_d_916_7355" x="20.5625" y="51.3379" width="23.709" height="26.6133" filterUnits="userSpaceOnUse" color-interpolation-filters="sRGB">
<feFlood flood-opacity="0" result="BackgroundImageFix"/>
<feColorMatrix in="SourceAlpha" type="matrix" values="0 0 0 0 0 0 0 0 0 0 0 0 0 0 0 0 0 0 127 0" result="hardAlpha"/>
<feOffset dy="4"/>
<feGaussianBlur stdDeviation="2"/>
<feComposite in2="hardAlpha" operator="out"/>
<feColorMatrix type="matrix" values="0 0 0 0 0 0 0 0 0 0 0 0 0 0 0 0 0 0 0.25 0"/>
<feBlend mode="normal" in2="BackgroundImageFix" result="effect1_dropShadow_916_7355"/>
<feBlend mode="normal" in="SourceGraphic" in2="effect1_dropShadow_916_7355" result="shape"/>
</filter>
<filter id="filter4_d_916_7355" x="41.1777" y="51.9375" width="10.8594" height="25.3936" filterUnits="userSpaceOnUse" color-interpolation-filters="sRGB">
<feFlood flood-opacity="0" result="BackgroundImageFix"/>
<feColorMatrix in="SourceAlpha" type="matrix" values="0 0 0 0 0 0 0 0 0 0 0 0 0 0 0 0 0 0 127 0" result="hardAlpha"/>
<feOffset dy="4"/>
<feGaussianBlur stdDeviation="2"/>
<feComposite in2="hardAlpha" operator="out"/>
<feColorMatrix type="matrix" values="0 0 0 0 0 0 0 0 0 0 0 0 0 0 0 0 0 0 0.25 0"/>
<feBlend mode="normal" in2="BackgroundImageFix" result="effect1_dropShadow_916_7355"/>
<feBlend mode="normal" in="SourceGraphic" in2="effect1_dropShadow_916_7355" result="shape"/>
</filter>
<filter id="filter5_d_916_7355" x="47.8242" y="51.748" width="26.1973" height="25.7715" filterUnits="userSpaceOnUse" color-interpolation-filters="sRGB">
<feFlood flood-opacity="0" result="BackgroundImageFix"/>
<feColorMatrix in="SourceAlpha" type="matrix" values="0 0 0 0 0 0 0 0 0 0 0 0 0 0 0 0 0 0 127 0" result="hardAlpha"/>
<feOffset dy="4"/>
<feGaussianBlur stdDeviation="2"/>
<feComposite in2="hardAlpha" operator="out"/>
<feColorMatrix type="matrix" values="0 0 0 0 0 0 0 0 0 0 0 0 0 0 0 0 0 0 0.25 0"/>
<feBlend mode="normal" in2="BackgroundImageFix" result="effect1_dropShadow_916_7355"/>
<feBlend mode="normal" in="SourceGraphic" in2="effect1_dropShadow_916_7355" result="shape"/>
</filter>
<filter id="filter6_d_916_7355" x="69.8047" y="51.3379" width="23.709" height="26.6133" filterUnits="userSpaceOnUse" color-interpolation-filters="sRGB">
<feFlood flood-opacity="0" result="BackgroundImageFix"/>
<feColorMatrix in="SourceAlpha" type="matrix" values="0 0 0 0 0 0 0 0 0 0 0 0 0 0 0 0 0 0 127 0" result="hardAlpha"/>
<feOffset dy="4"/>
<feGaussianBlur stdDeviation="2"/>
<feComposite in2="hardAlpha" operator="out"/>
<feColorMatrix type="matrix" values="0 0 0 0 0 0 0 0 0 0 0 0 0 0 0 0 0 0 0.25 0"/>
<feBlend mode="normal" in2="BackgroundImageFix" result="effect1_dropShadow_916_7355"/>
<feBlend mode="normal" in="SourceGraphic" in2="effect1_dropShadow_916_7355" result="shape"/>
</filter>
<linearGradient id="paint0_linear_916_7355" x1="48.0048" y1="9.45605" x2="48.0048" y2="43.859" gradientUnits="userSpaceOnUse">
<stop stop-color="#DC0916"/>
<stop offset="1" stop-color="#F41FD6"/>
</linearGradient>
<linearGradient id="paint1_linear_916_7355" x1="48.004" y1="16.7939" x2="48.004" y2="39.6504" gradientUnits="userSpaceOnUse">
<stop stop-color="#DC0916"/>
<stop offset="1" stop-color="#F41FD6"/>
</linearGradient>
</defs>
</svg>
