<svg width="17" height="19" viewBox="0 0 17 19" fill="none" xmlns="http://www.w3.org/2000/svg">
<path d="M1.69935 0.510254C2.23615 0.510254 2.59402 0.880049 2.59402 1.43474V2.26678C3.57815 1.80454 4.83068 1.43474 6.17268 1.43474C8.85667 1.43474 8.85667 3.28372 10.646 3.28372C13.33 3.28372 14.2247 1.43474 14.2247 1.43474V8.83064C14.2247 8.83064 13.33 10.6796 10.646 10.6796C7.96201 10.6796 7.96201 8.83064 6.17268 8.83064C3.48868 8.83064 2.59402 10.6796 2.59402 10.6796V17.151H0.804688V1.43474C0.804688 0.880049 1.16255 0.510254 1.69935 0.510254ZM2.59402 4.3931V8.27595C2.59402 8.27595 4.38335 6.88922 6.17268 6.88922C7.96201 6.88922 8.85667 8.73819 10.646 8.73819C12.4353 8.73819 12.4353 7.8137 12.4353 7.8137V4.67045C12.4353 4.67045 11.5407 5.13269 10.646 5.13269C8.85667 5.13269 7.96201 3.28372 6.17268 3.28372C4.38335 3.28372 2.59402 4.3931 2.59402 4.3931ZM12.4353 11.6041V14.3776H9.75134V16.2265H12.4353V19H14.2247V16.2265H16.9087V14.3776H14.2247V11.6041H12.4353Z" fill="white"/>
</svg>
