<svg width="17" height="19" viewBox="0 0 17 19" fill="none" xmlns="http://www.w3.org/2000/svg">
<path d="M8.77445 15.2928H0.617188V12.4831C0.617188 9.95434 4.94054 8.73679 7.143 8.73679C8.36659 8.73679 10.3243 9.11142 11.7926 9.95434C11.1401 10.2353 10.6506 10.6099 10.1612 11.0782C9.26389 10.7036 8.20344 11.5465 7.143 11.5465C4.69582 11.5465 2.16707 11.9211 2.16707 12.4831V13.5133H8.9376C8.85602 13.888 8.77445 14.3562 8.77445 14.8245V15.2928ZM16.116 14.8245C16.116 16.604 14.8108 18.1025 13.2609 18.1025C11.7111 18.1025 10.4059 16.604 10.4059 14.8245C10.4059 13.045 11.7111 11.5465 13.2609 11.5465C14.8108 11.5465 16.116 13.045 16.116 14.8245ZM7.143 2.18077C8.0403 2.18077 8.77445 3.02368 8.77445 4.05392C8.77445 5.08415 8.0403 5.92707 7.143 5.92707C6.2457 5.92707 5.51155 5.08415 5.51155 4.05392C5.51155 3.02368 6.2457 2.18077 7.143 2.18077ZM7.143 0.307617C5.3484 0.307617 3.88009 1.99345 3.88009 4.05392C3.88009 6.11438 5.3484 7.80022 7.143 7.80022C8.9376 7.80022 10.4059 6.11438 10.4059 4.05392C10.4059 1.99345 8.9376 0.307617 7.143 0.307617Z" fill="white"/>
</svg>
