<svg width="25" height="23" viewBox="0 0 25 23" fill="none" xmlns="http://www.w3.org/2000/svg">
<path d="M17.1454 3.3507C17.2552 3.04299 17.4943 2.78762 17.8102 2.6406C18.1261 2.49358 18.493 2.46691 18.8304 2.56645L19.1986 2.67848V2.32201C19.1986 1.99786 19.3397 1.68698 19.5908 1.45777C19.8419 1.22857 20.1825 1.0998 20.5377 1.0998C20.8928 1.0998 21.2334 1.22857 21.4845 1.45777C21.7357 1.68698 21.8768 1.99786 21.8768 2.32201V2.67848L22.245 2.56645C22.5768 2.48443 22.9304 2.52199 23.2326 2.67135C23.5349 2.82072 23.7626 3.07045 23.8688 3.36884C23.9749 3.66724 23.9512 3.99145 23.8027 4.27436C23.6541 4.55726 23.3921 4.7772 23.0708 4.88865L22.7025 5.00068L22.9369 5.28586C23.0406 5.41612 23.1152 5.56381 23.1562 5.72044C23.1972 5.87708 23.2039 6.03957 23.1759 6.19858C23.1479 6.35759 23.0858 6.50998 22.993 6.64699C22.9003 6.784 22.7788 6.90294 22.6356 6.99696C22.4929 7.09167 22.331 7.1597 22.1594 7.19715C21.9878 7.2346 21.8098 7.24072 21.6356 7.21517C21.4614 7.18961 21.2944 7.13288 21.1443 7.04824C20.9942 6.9636 20.8639 6.85272 20.7609 6.72196L20.5377 6.43678L20.3145 6.72196C20.1059 6.98533 19.7911 7.16226 19.4395 7.21384C19.088 7.26541 18.7284 7.18739 18.4398 6.99696C18.1512 6.80652 17.9574 6.51926 17.9009 6.19836C17.8444 5.87747 17.9299 5.54923 18.1385 5.28586L18.3728 5.00068L18.0046 4.88865C17.8368 4.84016 17.6813 4.76171 17.547 4.65787C17.4127 4.55403 17.3024 4.42686 17.2224 4.28375C17.1425 4.14065 17.0945 3.98447 17.0813 3.82429C17.068 3.66411 17.0898 3.50313 17.1454 3.3507ZM20.6493 19.7894C20.5953 19.8455 20.5355 19.8966 20.4707 19.9422C18.2708 21.7144 15.4375 22.6924 12.5032 22.6924C9.56898 22.6924 6.73571 21.7144 4.53575 19.9422C4.471 19.8966 4.41121 19.8455 4.35721 19.7894C2.56579 18.2931 1.31193 16.3374 0.760209 14.179C0.208488 12.0206 0.384695 9.76032 1.2657 7.69495C2.1467 5.62958 3.69133 3.85561 5.69682 2.60591C7.70231 1.35621 10.0749 0.689188 12.5032 0.692394C12.8715 0.692394 13.2509 0.712764 13.6191 0.74332C13.9728 0.771786 14.2995 0.927248 14.5276 1.17553C14.7557 1.42382 14.8664 1.7446 14.8355 2.06738C14.8015 2.391 14.6288 2.68926 14.355 2.8972C14.0812 3.10513 13.7285 3.2059 13.3736 3.17755C13.0846 3.14874 12.794 3.13514 12.5032 3.13681C10.7441 3.13571 9.02026 3.58697 7.52919 4.43889C6.03813 5.2908 4.84018 6.5089 4.07264 7.95359C3.3051 9.39829 2.99902 11.0111 3.18948 12.6073C3.37994 14.2034 4.05922 15.7183 5.14949 16.9783C6.0159 15.974 7.11787 15.1596 8.37443 14.595C7.57022 13.8517 7.0248 12.9079 6.80681 11.8824C6.58881 10.8568 6.70797 9.79536 7.14929 8.83148C7.59062 7.8676 8.33439 7.04437 9.28705 6.46535C10.2397 5.88634 11.3587 5.5774 12.5032 5.5774C13.6478 5.5774 14.7668 5.88634 15.7194 6.46535C16.6721 7.04437 17.4159 7.8676 17.8572 8.83148C18.2985 9.79536 18.4177 10.8568 18.1997 11.8824C17.9817 12.9079 17.4363 13.8517 16.632 14.595C17.8886 15.1596 18.9906 15.974 19.857 16.9783C21.1653 15.4752 21.8773 13.612 21.8768 11.6923C21.877 11.3485 21.8547 11.0049 21.8098 10.6636C21.7884 10.3516 21.8988 10.044 22.1183 9.80405C22.3378 9.56409 22.6497 9.41001 22.9898 9.37348C23.3299 9.33696 23.6725 9.42077 23.947 9.60769C24.2215 9.7946 24.4071 10.0704 24.4656 10.3784C24.5235 10.8144 24.5533 11.2531 24.5549 11.6923C24.5555 13.2155 24.2086 14.7221 23.5361 16.1162C22.8637 17.5102 21.8805 18.7612 20.6493 19.7894ZM12.5032 13.7293C13.1212 13.7293 13.7253 13.562 14.2391 13.2487C14.7529 12.9353 15.1534 12.4899 15.3899 11.9688C15.6264 11.4477 15.6883 10.8743 15.5677 10.3211C15.4471 9.76791 15.1496 9.25976 14.7126 8.86093C14.2756 8.46209 13.7189 8.19048 13.1128 8.08044C12.5067 7.97041 11.8785 8.02688 11.3075 8.24273C10.7366 8.45858 10.2486 8.8241 9.90531 9.29308C9.56198 9.76206 9.37873 10.3134 9.37873 10.8775C9.38167 11.633 9.71181 12.3568 10.2971 12.891C10.8825 13.4253 11.6755 13.7266 12.5032 13.7293ZM12.5032 20.2477C14.4383 20.2495 16.326 19.7013 17.9042 18.6792C17.2838 17.9027 16.4713 17.2709 15.5327 16.8354C14.5942 16.3998 13.5562 16.1728 12.5032 16.1728C11.4503 16.1728 10.4123 16.3998 9.47375 16.8354C8.53519 17.2709 7.72265 17.9027 7.10231 18.6792C8.6805 19.7013 10.5682 20.2495 12.5032 20.2477Z" fill="white"/>
</svg>
