<svg width="16" height="35" viewBox="0 0 16 35" fill="none" xmlns="http://www.w3.org/2000/svg">
<path d="M11.7438 0.456543H15.6307V24.0806C15.6307 28.1582 14.9654 30.9738 13.6362 32.5302C12.3056 34.0839 10.4281 34.8595 8.00212 34.8595C5.57484 34.8595 3.69726 34.0839 2.36804 32.5302C1.0415 30.9738 0.378906 28.1582 0.378906 24.0806V0.456543H4.26578V24.8062C4.26578 27.4037 4.59371 29.2072 5.24959 30.2167C5.90546 31.2262 6.81401 31.731 7.97524 31.731C9.13915 31.731 10.0584 31.2262 10.7331 30.2167C11.4065 29.2072 11.7438 27.4037 11.7438 24.8062V0.456543Z" fill="url(#paint0_linear_897_4092)"/>
<defs>
<linearGradient id="paint0_linear_897_4092" x1="8.0048" y1="0.456543" x2="8.0048" y2="34.8595" gradientUnits="userSpaceOnUse">
<stop stop-color="#DC0916"/>
<stop offset="1" stop-color="#F41FD6"/>
</linearGradient>
</defs>
</svg>
