<svg width="28" height="28" viewBox="0 0 28 28" fill="none" xmlns="http://www.w3.org/2000/svg">
<path d="M14 3.50391C13.5408 3.50391 13.0862 3.59435 12.6619 3.77006C12.2377 3.94578 11.8523 4.20333 11.5276 4.52801C11.2029 4.85269 10.9454 5.23814 10.7697 5.66235C10.5939 6.08657 10.5035 6.54124 10.5035 7.00041C10.5035 7.45957 10.5939 7.91424 10.7697 8.33846C10.9454 8.76267 11.2029 9.14813 11.5276 9.47281C11.8523 9.79749 12.2377 10.055 12.6619 10.2308C13.0862 10.4065 13.5408 10.4969 14 10.4969C14.9273 10.4969 15.8167 10.1285 16.4724 9.47281C17.1281 8.81708 17.4965 7.92774 17.4965 7.00041C17.4965 6.07308 17.1281 5.18373 16.4724 4.52801C15.8167 3.87229 14.9273 3.50391 14 3.50391ZM21.875 5.25041C21.1788 5.25041 20.5111 5.52697 20.0188 6.01925C19.5266 6.51153 19.25 7.17921 19.25 7.87541C19.25 8.5716 19.5266 9.23928 20.0188 9.73156C20.5111 10.2238 21.1788 10.5004 21.875 10.5004C22.5712 10.5004 23.2389 10.2238 23.7312 9.73156C24.2234 9.23928 24.5 8.5716 24.5 7.87541C24.5 7.17921 24.2234 6.51153 23.7312 6.01925C23.2389 5.52697 22.5712 5.25041 21.875 5.25041ZM6.125 5.25041C5.42881 5.25041 4.76113 5.52697 4.26885 6.01925C3.77656 6.51153 3.5 7.17921 3.5 7.87541C3.5 8.5716 3.77656 9.23928 4.26885 9.73156C4.76113 10.2238 5.42881 10.5004 6.125 10.5004C6.82119 10.5004 7.48887 10.2238 7.98116 9.73156C8.47344 9.23928 8.75 8.5716 8.75 7.87541C8.75 7.17921 8.47344 6.51153 7.98116 6.01925C7.48887 5.52697 6.82119 5.25041 6.125 5.25041ZM8.75 13.9882C8.75323 13.5262 8.93904 13.0842 9.26687 12.7586C9.59471 12.4331 10.038 12.2504 10.5 12.2504H17.5C17.9641 12.2504 18.4092 12.4348 18.7374 12.763C19.0656 13.0912 19.25 13.5363 19.25 14.0004V19.2504C19.2499 19.8012 19.1637 20.3485 18.9945 20.8727C18.607 22.0604 17.8088 23.0711 16.7432 23.7232C15.6775 24.3754 14.4143 24.6263 13.1803 24.4309C11.9464 24.2355 10.8225 23.6066 10.0105 22.6571C9.19849 21.7076 8.75158 20.4998 8.75 19.2504V13.9882ZM7 14.0004C7 13.3617 7.16975 12.7649 7.469 12.2504H3.5C3.03587 12.2504 2.59075 12.4348 2.26256 12.763C1.93437 13.0912 1.75 13.5363 1.75 14.0004V18.3754C1.74976 19.0917 1.9254 19.7971 2.26148 20.4296C2.59756 21.0622 3.08381 21.6025 3.67752 22.0032C4.27124 22.4039 4.95426 22.6527 5.6666 22.7278C6.37894 22.8028 7.09881 22.7018 7.763 22.4337C7.25931 21.4477 6.99776 20.3559 7 19.2487V14.0004ZM21 14.0004V19.2504C21 20.3967 20.7253 21.4782 20.237 22.4337C20.9012 22.7018 21.6211 22.8028 22.3334 22.7278C23.0457 22.6527 23.7288 22.4039 24.3225 22.0032C24.9162 21.6025 25.4024 21.0622 25.7385 20.4296C26.0746 19.7971 26.2502 19.0917 26.25 18.3754V14.0004C26.25 13.5363 26.0656 13.0912 25.7374 12.763C25.4092 12.4348 24.9641 12.2504 24.5 12.2504H20.531C20.8285 12.7649 21 13.3617 21 14.0004Z" fill="#F5F7FA"/>
</svg>
