<svg width="22" height="22" viewBox="0 0 22 22" fill="none" xmlns="http://www.w3.org/2000/svg">
<path d="M15.4282 16.225C15.1987 15.9602 15.0839 15.6595 15.0839 15.323C15.0839 14.9873 15.1987 14.7074 15.4282 14.4833L17.744 12.2222H8.76245C8.40778 12.2222 8.11069 12.1049 7.87118 11.8702C7.63084 11.6364 7.51067 11.3463 7.51067 11C7.51067 10.6537 7.63084 10.3632 7.87118 10.1286C8.11069 9.8947 8.40778 9.77778 8.76245 9.77778H17.744L15.4282 7.51667C15.1778 7.27222 15.0526 6.98215 15.0526 6.64644C15.0526 6.30993 15.1778 6.01944 15.4282 5.775C15.6577 5.53056 15.9447 5.40833 16.2894 5.40833C16.6332 5.40833 16.9199 5.52037 17.1494 5.74444L21.6558 10.1444C21.7809 10.2667 21.8698 10.3991 21.9224 10.5417C21.9741 10.6843 22 10.837 22 11C22 11.163 21.9741 11.3157 21.9224 11.4583C21.8698 11.6009 21.7809 11.7333 21.6558 11.8556L17.1494 16.2556C16.8781 16.5204 16.5811 16.6373 16.2581 16.6063C15.9343 16.5762 15.6577 16.4491 15.4282 16.225ZM2.50356 22C1.81508 22 1.22549 21.7609 0.734794 21.2826C0.244931 20.8034 0 20.2278 0 19.5556V2.44444C0 1.77222 0.244931 1.19656 0.734794 0.717444C1.22549 0.239148 1.81508 0 2.50356 0H10.0142C10.3689 0 10.6664 0.116926 10.9067 0.350778C11.1462 0.585444 11.266 0.875926 11.266 1.22222C11.266 1.56852 11.1462 1.85859 10.9067 2.09244C10.6664 2.32711 10.3689 2.44444 10.0142 2.44444H2.50356V19.5556H10.0142C10.3689 19.5556 10.6664 19.6729 10.9067 19.9076C11.1462 20.1414 11.266 20.4315 11.266 20.7778C11.266 21.1241 11.1462 21.4141 10.9067 21.648C10.6664 21.8827 10.3689 22 10.0142 22H2.50356Z" fill="white"/>
</svg>
