<svg width="21" height="20" viewBox="0 0 21 20" fill="none" xmlns="http://www.w3.org/2000/svg">
<path d="M16.0781 1.98449V7.93796L13.7812 5.95347L11.4844 7.93796V1.98449H6.89062V17.8604H18.375V1.98449H16.0781ZM0 4.96123V2.97674H2.29688V1.98449C2.29688 1.45817 2.53887 0.953408 2.96961 0.581244C3.40036 0.20908 3.98458 0 4.59375 0H18.375C19.5809 0 20.6719 0.942633 20.6719 1.98449V17.8604C20.6719 18.9023 19.5809 19.8449 18.375 19.8449H4.59375C3.38789 19.8449 2.29688 18.9023 2.29688 17.8604V16.8682H0V14.8837H2.29688V10.9147H0V8.93021H2.29688V4.96123H0ZM2.29688 2.97674V4.96123H4.59375V2.97674H2.29688ZM2.29688 16.8682H4.59375V14.8837H2.29688V16.8682ZM2.29688 10.9147H4.59375V8.93021H2.29688V10.9147Z" fill="#F5F7FA"/>
</svg>
