<svg width="22" height="23" viewBox="0 0 22 23" fill="none" xmlns="http://www.w3.org/2000/svg">
<path d="M16.3283 10.5L17.6881 9.03C18.1629 8.51667 18.7673 8.23667 19.4256 8.16667V7L12.9504 0H2.1584C0.960487 0 0 1.03833 0 2.33333V18.6667C0 19.2855 0.227402 19.879 0.63218 20.3166C1.03696 20.7542 1.58596 21 2.1584 21H8.63359V18.8183L8.77389 18.6667H2.1584V2.33333H9.71279V10.5H16.3283ZM11.8712 1.75L17.8068 8.16667H11.8712V1.75ZM17.4075 12.635L19.609 15.015L12.9936 22.1667H10.792V19.7867L17.4075 12.635ZM21.4221 13.055L20.3645 14.1983L18.1629 11.8183L19.2205 10.675C19.4256 10.4417 19.7817 10.4417 19.9976 10.675L21.4221 12.215C21.6379 12.4483 21.6379 12.8333 21.4221 13.055Z" fill="#F5F7FA"/>
</svg>
