<svg width="21" height="22" viewBox="0 0 21 22" fill="none" xmlns="http://www.w3.org/2000/svg">
<path d="M0.0628094 19.4571L7.27275 12.0747C6.81156 11.492 6.44576 10.8215 6.17537 10.063C5.90497 9.30453 5.76838 8.49696 5.76559 7.64029C5.75868 5.51809 6.47508 3.71993 7.91478 2.2458C9.35524 0.770883 11.1185 0.0301349 13.2044 0.0235523C15.2904 0.0169697 17.0584 0.746575 18.5084 2.21237C19.9577 3.67738 20.6858 5.47099 20.6927 7.59319C20.6996 9.71539 19.9832 11.5139 18.5435 12.9889C17.103 14.463 15.3398 15.2033 13.2539 15.2099C12.4118 15.2126 11.6172 15.0788 10.8699 14.8086C10.1227 14.5384 9.46125 14.1705 8.88561 13.7051L1.67567 21.0874L0.0628094 19.4571ZM8.06207 7.63305C8.06682 9.09328 8.57303 10.3331 9.58068 11.3525C10.5891 12.3711 11.811 12.8781 13.2463 12.8736C14.6815 12.869 15.9001 12.3543 16.9018 11.3294C17.9028 10.3036 18.401 9.06066 18.3962 7.60044C18.3915 6.14021 17.8853 4.9004 16.8776 3.88102C15.8692 2.86242 14.6473 2.35539 13.212 2.35992C11.7767 2.36445 10.5582 2.87918 9.55643 3.90413C8.55544 4.92984 8.05731 6.17282 8.06207 7.63305Z" fill="white" fill-opacity="0.8"/>
</svg>
