<svg width="28" height="28" viewBox="0 0 28 28" fill="none" xmlns="http://www.w3.org/2000/svg">
<path d="M23.3288 4.77951C23.2836 4.11571 22.9879 3.49386 22.5017 3.0397C22.0155 2.58553 21.375 2.33295 20.7096 2.33301H7.29297L7.1133 2.33884C6.44951 2.38438 5.82778 2.68029 5.37383 3.16672C4.91989 3.65316 4.66759 4.29383 4.66797 4.95917V23.0402L4.6738 23.2198C4.71905 23.8836 5.01466 24.5055 5.50088 24.9597C5.9871 25.4138 6.62763 25.6664 7.29297 25.6663H16.1223L14.3723 23.9163H7.29297L7.17397 23.9082C6.96449 23.8794 6.77251 23.7758 6.63353 23.6164C6.49455 23.4571 6.41798 23.2528 6.41797 23.0413V4.95917L6.42614 4.84017C6.45489 4.6307 6.55853 4.43871 6.71788 4.29974C6.87724 4.16076 7.08153 4.08418 7.29297 4.08417H20.7096L20.8286 4.09234C21.0381 4.1211 21.2301 4.22474 21.3691 4.38409C21.5081 4.54344 21.5846 4.74773 21.5846 4.95917V18.454L22.9368 17.1018C23.0605 16.9782 23.1935 16.8685 23.3335 16.7752V4.95801L23.3288 4.77951ZM19.004 25.6652C18.9744 25.6668 18.9448 25.6668 18.9153 25.6652C18.6985 25.6543 18.4935 25.5632 18.3401 25.4097L15.4235 22.4907C15.2595 22.3264 15.1675 22.1037 15.1677 21.8715C15.1679 21.6394 15.2603 21.4168 15.4246 21.2528C15.5889 21.0889 15.8117 20.9968 16.0438 20.9971C16.2759 20.9973 16.4985 21.0897 16.6625 21.254L18.9596 23.5535L24.1746 18.3385C24.2554 18.255 24.352 18.1884 24.4587 18.1426C24.5655 18.0967 24.6804 18.0727 24.7965 18.0717C24.9127 18.0708 25.0279 18.0929 25.1354 18.137C25.243 18.181 25.3406 18.2461 25.4227 18.3283C25.5049 18.4104 25.5698 18.5082 25.6137 18.6157C25.6577 18.7233 25.6798 18.8385 25.6787 18.9547C25.6776 19.0709 25.6534 19.1857 25.6075 19.2924C25.5616 19.3991 25.4949 19.4957 25.4113 19.5763L19.578 25.4097C19.4249 25.563 19.2203 25.654 19.004 25.6652ZM16.148 19.2497C16.0772 19.2469 16.0064 19.2469 15.9356 19.2497H13.1205C12.8884 19.2497 12.6658 19.1575 12.5018 18.9934C12.3377 18.8293 12.2455 18.6067 12.2455 18.3747C12.2455 18.1426 12.3377 17.9201 12.5018 17.756C12.6658 17.5919 12.8884 17.4997 13.1205 17.4997H18.9585C19.1905 17.4997 19.4131 17.5919 19.5772 17.756C19.7413 17.9201 19.8335 18.1426 19.8335 18.3747C19.8335 18.6067 19.7413 18.8293 19.5772 18.9934C19.4131 19.1575 19.1905 19.2497 18.9585 19.2497H16.148ZM10.5013 9.04367C10.5013 9.35309 10.3784 9.64984 10.1596 9.86863C9.9408 10.0874 9.64406 10.2103 9.33464 10.2103C9.02522 10.2103 8.72847 10.0874 8.50968 9.86863C8.29089 9.64984 8.16797 9.35309 8.16797 9.04367C8.16797 8.73425 8.29089 8.43751 8.50968 8.21872C8.72847 7.99992 9.02522 7.87701 9.33464 7.87701C9.64406 7.87701 9.9408 7.99992 10.1596 8.21872C10.3784 8.43751 10.5013 8.73425 10.5013 9.04367ZM12.2466 9.04134C12.2466 8.80928 12.3388 8.58672 12.5029 8.42262C12.667 8.25853 12.8896 8.16634 13.1216 8.16634H18.9596C19.1917 8.16634 19.4143 8.25853 19.5784 8.42262C19.7424 8.58672 19.8346 8.80928 19.8346 9.04134C19.8346 9.27341 19.7424 9.49596 19.5784 9.66006C19.4143 9.82415 19.1917 9.91634 18.9596 9.91634H13.1216C12.8896 9.91634 12.667 9.82415 12.5029 9.66006C12.3388 9.49596 12.2466 9.27341 12.2466 9.04134ZM13.1216 12.833C12.8896 12.833 12.667 12.9252 12.5029 13.0893C12.3388 13.2534 12.2466 13.4759 12.2466 13.708C12.2466 13.9401 12.3388 14.1626 12.5029 14.3267C12.667 14.4908 12.8896 14.583 13.1216 14.583H18.9596C19.0745 14.583 19.1883 14.5604 19.2945 14.5164C19.4006 14.4724 19.4971 14.408 19.5784 14.3267C19.6596 14.2455 19.7241 14.149 19.768 14.0429C19.812 13.9367 19.8346 13.8229 19.8346 13.708C19.8346 13.5931 19.812 13.4793 19.768 13.3732C19.7241 13.267 19.6596 13.1705 19.5784 13.0893C19.4971 13.008 19.4006 12.9436 19.2945 12.8996C19.1883 12.8556 19.0745 12.833 18.9596 12.833H13.1216ZM9.33464 14.8747C9.64406 14.8747 9.9408 14.7518 10.1596 14.533C10.3784 14.3142 10.5013 14.0174 10.5013 13.708C10.5013 13.3986 10.3784 13.1018 10.1596 12.883C9.9408 12.6643 9.64406 12.5413 9.33464 12.5413C9.02522 12.5413 8.72847 12.6643 8.50968 12.883C8.29089 13.1018 8.16797 13.3986 8.16797 13.708C8.16797 14.0174 8.29089 14.3142 8.50968 14.533C8.72847 14.7518 9.02522 14.8747 9.33464 14.8747ZM10.5013 18.3723C10.5013 18.6818 10.3784 18.9785 10.1596 19.1973C9.9408 19.4161 9.64406 19.539 9.33464 19.539C9.02522 19.539 8.72847 19.4161 8.50968 19.1973C8.29089 18.9785 8.16797 18.6818 8.16797 18.3723C8.16797 18.0629 8.29089 17.7662 8.50968 17.5474C8.72847 17.3286 9.02522 17.2057 9.33464 17.2057C9.64406 17.2057 9.9408 17.3286 10.1596 17.5474C10.3784 17.7662 10.5013 18.0629 10.5013 18.3723Z" fill="#F5F7FA"/>
</svg>
